<?xml version="1.0" encoding="UTF-8"?>
<!DOCTYPE svg
PUBLIC "-//W3C//DTD SVG 1.1//EN"
       "http://www.w3.org/Graphics/SVG/1.1/DTD/svg11.dtd">
<svg viewBox="148 76 917 551" width="769px" height="475px" xmlns="http://www.w3.org/2000/svg" version="1.1">
   <line x1="591" y1="526" x2="601" y2="526" style="stroke:#0bf;stroke-width:1;"/>
   <line x1="710" y1="469" x2="720" y2="469" style="stroke:#0bf;stroke-width:1;"/>
   <line x1="601" y1="526" x2="710" y2="469" style="stroke:#0bf;stroke-width:1;"/>
   <line x1="598.5" y1="526" x2="594.96446609407" y2="529.53553390593" style="stroke:#0bf;stroke-width:2;"/>
   <line x1="598.5" y1="526" x2="594.96446609407" y2="522.46446609407" style="stroke:#0bf;stroke-width:2;"/>
   <line x1="715" y1="469" x2="711.46446609407" y2="472.53553390593" style="stroke:#0bf;stroke-width:2;"/>
   <line x1="715" y1="469" x2="711.46446609407" y2="465.46446609407" style="stroke:#0bf;stroke-width:2;"/>
   <line x1="311" y1="282" x2="321" y2="282" style="stroke:#c00;stroke-width:1;"/>
   <line x1="463" y1="278" x2="473" y2="278" style="stroke:#c00;stroke-width:1;"/>
   <line x1="321" y1="282" x2="463" y2="278" style="stroke:#c00;stroke-width:1;"/>
   <line x1="318.5" y1="282" x2="314.96446609407" y2="285.53553390593" style="stroke:#c00;stroke-width:2;"/>
   <line x1="318.5" y1="282" x2="314.96446609407" y2="278.46446609407" style="stroke:#c00;stroke-width:2;"/>
   <line x1="468" y1="278" x2="464.46446609407" y2="281.53553390593" style="stroke:#c00;stroke-width:2;"/>
   <line x1="468" y1="278" x2="464.46446609407" y2="274.46446609407" style="stroke:#c00;stroke-width:2;"/>
   <line x1="285" y1="413" x2="295" y2="413" style="stroke:#0b0;stroke-width:1;"/>
   <line x1="453" y1="466" x2="463" y2="466" style="stroke:#0b0;stroke-width:1;"/>
   <line x1="295" y1="413" x2="453" y2="466" style="stroke:#0b0;stroke-width:1;"/>
   <line x1="292.5" y1="413" x2="288.96446609407" y2="416.53553390593" style="stroke:#0b0;stroke-width:2;"/>
   <line x1="292.5" y1="413" x2="288.96446609407" y2="409.46446609407" style="stroke:#0b0;stroke-width:2;"/>
   <line x1="458" y1="466" x2="454.46446609407" y2="469.53553390593" style="stroke:#0b0;stroke-width:2;"/>
   <line x1="458" y1="466" x2="454.46446609407" y2="462.46446609407" style="stroke:#0b0;stroke-width:2;"/>
   <line x1="285" y1="433" x2="295" y2="433" style="stroke:#0b0;stroke-width:1;"/>
   <line x1="321" y1="122" x2="311" y2="122" style="stroke:#0b0;stroke-width:1;"/>
   <line x1="295" y1="433" x2="321" y2="122" style="stroke:#0b0;stroke-width:1;"/>
   <line x1="292.5" y1="433" x2="288.96446609407" y2="436.53553390593" style="stroke:#0b0;stroke-width:2;"/>
   <line x1="292.5" y1="433" x2="288.96446609407" y2="429.46446609407" style="stroke:#0b0;stroke-width:2;"/>
   <line x1="316" y1="122" x2="319.53553390593" y2="125.53553390593" style="stroke:#0b0;stroke-width:2;"/>
   <line x1="316" y1="122" x2="319.53553390593" y2="118.46446609407" style="stroke:#0b0;stroke-width:2;"/>
   <line x1="571" y1="121" x2="581" y2="121" style="stroke:#0b0;stroke-width:1;"/>
   <line x1="743" y1="124" x2="753" y2="124" style="stroke:#0b0;stroke-width:1;"/>
   <line x1="581" y1="121" x2="743" y2="124" style="stroke:#0b0;stroke-width:1;"/>
   <line x1="578.5" y1="121" x2="574.96446609407" y2="124.53553390593" style="stroke:#0b0;stroke-width:2;"/>
   <line x1="578.5" y1="121" x2="574.96446609407" y2="117.46446609407" style="stroke:#0b0;stroke-width:2;"/>
   <line x1="748" y1="124" x2="744.46446609407" y2="127.53553390593" style="stroke:#0b0;stroke-width:2;"/>
   <line x1="748" y1="124" x2="744.46446609407" y2="120.46446609407" style="stroke:#0b0;stroke-width:2;"/>
   <line x1="463" y1="141" x2="453" y2="141" style="stroke:#c00;stroke-width:1;"/>
   <line x1="321" y1="122" x2="311" y2="122" style="stroke:#c00;stroke-width:1;"/>
   <line x1="453" y1="141" x2="321" y2="122" style="stroke:#c00;stroke-width:1;"/>
   <line x1="455.5" y1="141" x2="459.03553390593" y2="144.53553390593" style="stroke:#c00;stroke-width:2;"/>
   <line x1="455.5" y1="141" x2="459.03553390593" y2="137.46446609407" style="stroke:#c00;stroke-width:2;"/>
   <line x1="316" y1="122" x2="319.53553390593" y2="125.53553390593" style="stroke:#c00;stroke-width:2;"/>
   <line x1="316" y1="122" x2="319.53553390593" y2="118.46446609407" style="stroke:#c00;stroke-width:2;"/>
   <rect width="128" height="20" x="463" y="436" style="fill:#007;stroke:black;"/>
   <text width="128" height="20" x="468" y="450" style="fill:#fff;" font-family="Arial" font-size="16px"> activites</text>
   <rect width="128" height="20" x="463" y="456" style="fill:#aea;stroke:black;"/>
   <text width="128" height="20" x="468" y="470" style="fill:black;" font-family="Arial" font-size="16px">id</text>
   <rect width="128" height="20" x="463" y="476" style="fill:none;stroke:black;"/>
   <text width="128" height="20" x="468" y="490" style="fill:black;" font-family="Arial" font-size="16px">nom</text>
   <rect width="128" height="20" x="463" y="496" style="fill:none;stroke:black;"/>
   <text width="128" height="20" x="468" y="510" style="fill:black;" font-family="Arial" font-size="16px">nbr_max</text>
   <rect width="128" height="20" x="463" y="516" style="fill:none;stroke:black;"/>
   <text width="128" height="20" x="468" y="530" style="fill:black;" font-family="Arial" font-size="16px">id_types_activites</text>
   <rect width="149" height="20" x="753" y="94" style="fill:#007;stroke:black;"/>
   <text width="149" height="20" x="758" y="108" style="fill:#fff;" font-family="Arial" font-size="16px"> dates</text>
   <rect width="149" height="20" x="753" y="114" style="fill:#aea;stroke:black;"/>
   <text width="149" height="20" x="758" y="128" style="fill:black;" font-family="Arial" font-size="16px">id</text>
   <rect width="149" height="20" x="753" y="134" style="fill:none;stroke:black;"/>
   <text width="149" height="20" x="758" y="148" style="fill:black;" font-family="Arial" font-size="16px">dates_heure_arrivee</text>
   <rect width="149" height="20" x="753" y="154" style="fill:none;stroke:black;"/>
   <text width="149" height="20" x="758" y="168" style="fill:black;" font-family="Arial" font-size="16px">dates_heure_depart</text>
   <rect width="118" height="20" x="193" y="92" style="fill:#007;stroke:black;"/>
   <text width="118" height="20" x="198" y="106" style="fill:#fff;" font-family="Arial" font-size="16px"> enfants</text>
   <rect width="118" height="20" x="193" y="112" style="fill:#aea;stroke:black;"/>
   <text width="118" height="20" x="198" y="126" style="fill:black;" font-family="Arial" font-size="16px">id</text>
   <rect width="118" height="20" x="193" y="132" style="fill:none;stroke:black;"/>
   <text width="118" height="20" x="198" y="146" style="fill:black;" font-family="Arial" font-size="16px">nom</text>
   <rect width="118" height="20" x="193" y="152" style="fill:none;stroke:black;"/>
   <text width="118" height="20" x="198" y="166" style="fill:black;" font-family="Arial" font-size="16px">prenom</text>
   <rect width="118" height="20" x="193" y="172" style="fill:none;stroke:black;"/>
   <text width="118" height="20" x="198" y="186" style="fill:black;" font-family="Arial" font-size="16px">date_naissance</text>
   <rect width="118" height="20" x="193" y="192" style="fill:none;stroke:black;"/>
   <text width="118" height="20" x="198" y="206" style="fill:black;" font-family="Arial" font-size="16px">adresse</text>
   <rect width="118" height="20" x="193" y="212" style="fill:none;stroke:black;"/>
   <text width="118" height="20" x="198" y="226" style="fill:black;" font-family="Arial" font-size="16px">remarques</text>
   <rect width="118" height="20" x="193" y="232" style="fill:none;stroke:black;"/>
   <text width="118" height="20" x="198" y="246" style="fill:black;" font-family="Arial" font-size="16px">num_chambre</text>
   <rect width="118" height="20" x="193" y="252" style="fill:none;stroke:black;"/>
   <text width="118" height="20" x="198" y="266" style="fill:black;" font-family="Arial" font-size="16px">num_lit</text>
   <rect width="118" height="20" x="193" y="272" style="fill:none;stroke:black;"/>
   <text width="118" height="20" x="198" y="286" style="fill:black;" font-family="Arial" font-size="16px">id_parents</text>
   <rect width="122" height="20" x="163" y="383" style="fill:#007;stroke:black;"/>
   <text width="122" height="20" x="168" y="397" style="fill:#fff;" font-family="Arial" font-size="16px"> enfants_activites</text>
   <rect width="122" height="20" x="163" y="403" style="fill:#aea;stroke:black;"/>
   <text width="122" height="20" x="168" y="417" style="fill:black;" font-family="Arial" font-size="16px">id</text>
   <rect width="122" height="20" x="163" y="423" style="fill:#aea;stroke:black;"/>
   <text width="122" height="20" x="168" y="437" style="fill:black;" font-family="Arial" font-size="16px">id_enfants</text>
   <rect width="108" height="20" x="463" y="91" style="fill:#007;stroke:black;"/>
   <text width="108" height="20" x="468" y="105" style="fill:#fff;" font-family="Arial" font-size="16px"> enfants_dates</text>
   <rect width="108" height="20" x="463" y="111" style="fill:#aea;stroke:black;"/>
   <text width="108" height="20" x="468" y="125" style="fill:black;" font-family="Arial" font-size="16px">id</text>
   <rect width="108" height="20" x="463" y="131" style="fill:#aea;stroke:black;"/>
   <text width="108" height="20" x="468" y="145" style="fill:black;" font-family="Arial" font-size="16px">id_enfants</text>
   <rect width="82" height="20" x="473" y="248" style="fill:#007;stroke:black;"/>
   <text width="82" height="20" x="478" y="262" style="fill:#fff;" font-family="Arial" font-size="16px"> parents</text>
   <rect width="82" height="20" x="473" y="268" style="fill:#aea;stroke:black;"/>
   <text width="82" height="20" x="478" y="282" style="fill:black;" font-family="Arial" font-size="16px">id</text>
   <rect width="82" height="20" x="473" y="288" style="fill:none;stroke:black;"/>
   <text width="82" height="20" x="478" y="302" style="fill:black;" font-family="Arial" font-size="16px">nom_mere</text>
   <rect width="82" height="20" x="473" y="308" style="fill:none;stroke:black;"/>
   <text width="82" height="20" x="478" y="322" style="fill:black;" font-family="Arial" font-size="16px">nom_pere</text>
   <rect width="82" height="20" x="473" y="328" style="fill:none;stroke:black;"/>
   <text width="82" height="20" x="478" y="342" style="fill:black;" font-family="Arial" font-size="16px">tel_mere</text>
   <rect width="82" height="20" x="473" y="348" style="fill:none;stroke:black;"/>
   <text width="82" height="20" x="478" y="362" style="fill:black;" font-family="Arial" font-size="16px">tel_pere</text>
   <rect width="111" height="20" x="720" y="439" style="fill:#007;stroke:black;"/>
   <text width="111" height="20" x="725" y="453" style="fill:#fff;" font-family="Arial" font-size="16px"> types_activites</text>
   <rect width="111" height="20" x="720" y="459" style="fill:#aea;stroke:black;"/>
   <text width="111" height="20" x="725" y="473" style="fill:black;" font-family="Arial" font-size="16px">id</text>
   <rect width="111" height="20" x="720" y="479" style="fill:none;stroke:black;"/>
   <text width="111" height="20" x="725" y="493" style="fill:black;" font-family="Arial" font-size="16px">nom</text>
</svg>
